<svg xmlns="http://www.w3.org/2000/svg" version="1.1" xmlns:xlink="http://www.w3.org/1999/xlink" width="512" height="512" x="0" y="0" viewBox="0 0 4335 4335" style="enable-background:new 0 0 512 512" xml:space="preserve" fill-rule="evenodd" class=""><g><path fill="#83868b" d="M2172 788c6-10 5 7 5 28 60 303 122 361 371 547 0 0-237 279-237 474s93 364 246 389c152 25 313-127 330-364s-135-449-135-449c319-10 443-353 542-610 0 0-17 364 34 500 51 135 169 229 169 229s-313 212-313 406c0 195-34 347 152 389s356-203 356-389-85-279-85-279l68-25s195-59 313-169c119-110 284-242 284-242l-733 1402s-194-219-1297-220h-164c-1103 1-1297 220-1297 220L48 1223s166 132 284 242c119 110 313 169 313 169l68 25s-85 93-85 279 169 432 356 389c186-42 152-195 152-389 0-195-313-406-313-406s119-93 169-229c51-135 34-500 34-500 99 256 223 599 542 610 0 0-152 212-135 449s178 389 330 364 246-195 246-389c0-195-237-474-237-474 249-187 311-245 371-547 0-21 9-32 5-28 1-8 22-8 23 0zM925 3455s412 144 1267 144 1202-144 1202-144 102-34 144-152c42-119-135-178-135-178v-271s68-17 102-85-17-127-17-127c-334-134-830-201-1327-201h-3c-496 0-992 67-1327 201 0 0-51 59-17 127s102 85 102 85v271s-178 59-135 178c42 119 144 152 144 152zm2374-48c-153 45-484 116-1056 116-682 0-1061-95-1179-131 155-48 471-106 1094-106h2c689 1 1002 71 1138 121zm-2364 41-10 8s3-3 10-8zm1226-466h-2c-70 0-127-57-127-127s57-127 127-127h2c70 0 127 57 127 127s-57 127-127 127zm-495-195c-44 0-80 36-80 80s36 80 80 80 80-36 80-80-36-80-80-80zm988 0c44 0 80 36 80 80s-36 80-80 80-80-36-80-80 36-80 80-80z" opacity="1" data-original="#2b2a29" class=""></path></g></svg>