<?xml version="1.0" encoding="UTF-8"?>
<svg id="Laag_1" xmlns="http://www.w3.org/2000/svg" viewBox="0 0 27.7904 61.0226">
  <defs>
    <style>
      .cls-1 {
        fill: #832a2a;
      }
    </style>
  </defs>
  <path class="cls-1" d="M10.0956,35.0047c-.1437-.1122-.3191-.2131-.4261-.3384-.8825-1.0327-1.5393-2.125-2.0258-3.26-.6201-1.4468-.9708-2.9225-1.1209-4.4189-.0469-.468-.0872-.9363-.1213-1.4047-.0157-.2153.0979-.3916.3369-.5588,1.365-.9548,2.8435-1.8286,4.4304-2.6274.0403-.0203.0844-.0375.1728-.0765.3274.5505.2202,1.1334.4458,1.7377.2134-.0944.4075-.154.5485-.247.8877-.5852,1.7654-1.1766,2.6428-1.7683,1.3808-.931,2.7909-1.845,4.131-2.7998,2.7031-1.9259,4.2848-4.1961,4.8499-6.7628.0949-.4312.1648-.8646.262-1.2955.0267-.1184.1102-.2314.1676-.347l.1304-.0152c.1694.1615.3753.3121.5001.4868.2301.322.4281.6546.6118.9891.6098,1.1105.9682,2.2572,1.2418,3.421.3821,1.6256.6977,3.2537.8085,4.8973.2057,3.0529.1332,6.101-.3386,9.1436-1.0367,6.6864-3.7348,13.0912-7.8476,19.2579-1.5007,2.2501-3.1422,4.4564-4.9775,6.6005-.6068.709-1.3325,1.3764-2.0214,2.0555-.9566.943-1.9284,1.8796-2.8972,2.8174-.1206.1168-.2454.236-.4008.3324-.1331.0826-.3129.1339-.4721.199-.0331-.016-.0662-.0319-.0993-.0479.1016-.2137.1827-.4326.3082-.6404.6676-1.1057,1.3716-2.2025,2.0165-3.3135,1.8308-3.1541,3.4191-6.3587,4.7544-9.6147,1.0718-2.6134,1.935-5.2565,2.692-7.9144.7609-2.6718,1.3742-5.3574,1.796-8.0606.4628-2.9659.6771-5.9383.5493-8.9191-.0197-.4604-.0915-.9199-.1398-1.3858-.3732-.0023-.6009.1165-.8063.2477-.6506.4155-1.3075.8277-1.933,1.2586-1.244.857-2.484,1.7169-3.6974,2.5918-1.4818,1.0684-2.4478,2.3239-3.1125,3.6818-.7316,1.4948-1.1612,3.0187-1.0284,4.5928.0344.4078.1225.8137.1813,1.2207.0114.0791.0016.1595.0016.2393-.0379.0153-.0757.0306-.1136.0459Z"/>
  <path class="cls-1" d="M14.5755,21.2707c-.0746-.4917-.1445-.953-.2202-1.4522-.1958.0858-.3914.1488-.5435.2415-2.3678,1.4424-4.9933,2.6935-7.3217,4.17-2.3707,1.5033-3.4786,3.3309-3.8515,5.4001-.0251.1394-.0488.2789-.0774.4431-.2713-.0676-.3841-.2017-.4691-.3519-.5284-.9337-.9601-1.8848-1.2564-2.861-1.5774-5.1956-.909-10.2772,1.9012-15.2431C5.0647,7.5032,8.5916,3.8649,13.3033.7058c.2304-.1545.474-.3026.7308-.4385.1747-.0924.3731-.1737.5804-.2303.1418-.0387.3172-.0265.4776-.037-.0101.1092-.0073.2198-.0357.327-.0149.0562-.0733.1123-.1314.1583-.8587.6796-1.3919,1.4791-1.9451,2.2637-2.2537,3.1967-4.223,6.4639-5.5932,9.8673-.8664,2.1518-1.4017,4.3449-1.6854,6.5603-.0974.7607-.0971,1.5267-.1314,2.2905-.0038.0847.0587.1706.0905.2559.136-.0409.2967-.064.4043-.1256.9883-.5655,1.9846-1.1259,2.9452-1.7106,1.6346-.9949,3.2537-2.0005,4.8622-3.0128.975-.6136,1.5994-1.3848,2.2039-2.1576.936-1.1966,1.4426-2.4672,1.5087-3.8087.0026-.0526.0133-.1083.0434-.1566.0957-.1536.2864-.1763.3989-.0313.2451.3159.4993.6348.6622.9702.7805,1.6066,1.0513,3.2642,1.1278,4.9389.007.1542-.0085.3101.0223.4623.0803.3973-.1301.7311-.538,1.0118-1.5154,1.0425-3.0416,2.0784-4.5644,3.1164-.0131.0089-.036.0119-.1613.0512Z"/>
  <path class="cls-1" d="M19.7113,22.436c.0188.252.0361.4388.0461.6257.1269,2.3799-.1823,4.7403-.7098,7.0943-.3962,1.7679-.9112,3.5153-1.7949,5.2123-.7519,1.4439-1.7886,2.7995-3.0408,4.0885-.2308.2376-.492.4599-.9847.5998.0712-.2904.1114-.5419.1964-.787.6694-1.9306.8924-3.895,1.1161-5.8614.278-2.4432.3285-4.8884.2553-7.3358-.0085-.2842.1072-.5221.4174-.7293,1.2568-.8396,2.5025-1.6861,3.7618-2.5241.1983-.132.4458-.2333.737-.383Z"/>
  <path class="cls-1" d="M6.7599,20.2364c.0991-.5356.173-1.0209.2809-1.5032.5401-2.4135,1.3656-4.7847,2.6103-7.0901.7158-1.3258,1.5689-2.6132,2.7434-3.803.2059-.2086.4241-.4093.8787-.5276-.0704.1875-.1126.3356-.1816.4783-1.109,2.2917-1.6482,4.6495-1.9241,7.034-.0989.8543-.0761,1.7147-.0939,2.5725-.0043.2091-.0996.3899-.3267.5256-1.2355.7384-2.481,1.4698-3.7246,2.2025-.0518.0305-.1183.0506-.2625.111Z"/>
</svg>