<svg width="802" height="362" fill="none" xmlns="http://www.w3.org/2000/svg"><path d="M1 1.882h800m0 4.173H1h800Zm0 4.367H1h800Zm0 4.751H1h800Zm0 5.008H1h800Zm0 5.394H1h800Zm0 5.843H1h800Zm0 6.228H1h800Zm0 6.742H1h800Zm0 7.32H1h800Zm0 8.026H1h800Zm0 8.668H1h800Zm0 9.503H1h800Zm0 10.53H1h800Zm0 11.558H1h800Zm0 12.906H1h800Zm0 14.447H1h800Zm0 16.309H1h800Zm0 18.428H1h800Zm0 21.125H1h800Zm0 24.4H1h800Zm0 28.508H1h800Zm0 33.839H1h800Zm0 40.644H1h800ZM1 12.476 30.69 1.882 1 12.476Zm0 35.636 103.744-46.23L1 48.112Zm0 59.458L178.799 1.882 1 107.57Zm0 118.851L252.853 1.881 1 226.422Zm124.817 134.068L326.945 1.882 125.817 360.489Zm275.183 0V1.882v358.607Zm275.183 0L475.055 1.882l201.128 358.607ZM801 226.421 549.109 1.881 801 226.422Zm0-118.851L623.201 1.882 801 107.57Zm0-59.458L697.256 1.882 801 48.112Zm0-35.636L771.31 1.882 801 12.476Z" stroke="url(#a)" stroke-opacity=".1" stroke-width="3" stroke-miterlimit="10"/><defs><linearGradient id="a" x1="400.994" y1=".919" x2="400.994" y2="361.155" gradientUnits="userSpaceOnUse"><stop stop-color="#fff" stop-opacity="0"/><stop offset="1" stop-color="#F8F6FC"/></linearGradient></defs></svg>